<?xml version="1.0" encoding="UTF-8" standalone="no"?>
<!-- Created with Inkscape (http://www.inkscape.org/) -->

<svg
   xmlns:dc="http://purl.org/dc/elements/1.1/"
   xmlns:cc="http://creativecommons.org/ns#"
   xmlns:rdf="http://www.w3.org/1999/02/22-rdf-syntax-ns#"
   xmlns:svg="http://www.w3.org/2000/svg"
   xmlns="http://www.w3.org/2000/svg"
   xmlns:xlink="http://www.w3.org/1999/xlink"
   xmlns:sodipodi="http://sodipodi.sourceforge.net/DTD/sodipodi-0.dtd"
   xmlns:inkscape="http://www.inkscape.org/namespaces/inkscape"
   width="350"
   height="256"
   viewBox="0 0 350 256"
   id="svg2"
   version="1.1"
   inkscape:version="0.91 r13725"
   sodipodi:docname="icon.svg"
   style="enable-background:new"
   inkscape:export-filename="C:\Projects\Datasheets2\Resources\icon.png"
   inkscape:export-xdpi="90"
   inkscape:export-ydpi="90"
   enable-background="new">
  <defs
     id="defs4">
    <filter
       inkscape:collect="always"
       style="color-interpolation-filters:sRGB"
       id="filter4238">
      <feBlend
         inkscape:collect="always"
         mode="multiply"
         in2="BackgroundImage"
         id="feBlend4240" />
    </filter>
    <mask
       maskUnits="userSpaceOnUse"
       id="mask4268">
      <rect
         style="display:inline;opacity:1;fill:#888a85;fill-opacity:1;stroke:none;stroke-width:2;stroke-miterlimit:4;stroke-dasharray:none;stroke-opacity:1;filter:url(#filter4238)"
         id="rect4270"
         width="58"
         height="169.25"
         x="33.5"
         y="44.75" />
    </mask>
    <filter
       inkscape:collect="always"
       style="color-interpolation-filters:sRGB"
       id="filter4338">
      <feBlend
         inkscape:collect="always"
         mode="multiply"
         in2="BackgroundImage"
         id="feBlend4340" />
    </filter>
  </defs>
  <sodipodi:namedview
     id="base"
     pagecolor="#ffffff"
     bordercolor="#666666"
     borderopacity="1.0"
     inkscape:pageopacity="0.0"
     inkscape:pageshadow="2"
     inkscape:zoom="1"
     inkscape:cx="279.63462"
     inkscape:cy="178.05961"
     inkscape:document-units="px"
     inkscape:current-layer="layer10"
     showgrid="true"
     units="px"
     inkscape:window-width="1797"
     inkscape:window-height="932"
     inkscape:window-x="3053"
     inkscape:window-y="75"
     inkscape:window-maximized="0">
    <inkscape:grid
       type="xygrid"
       id="grid6221"
       dotted="false"
       snapvisiblegridlinesonly="true" />
  </sodipodi:namedview>
  <metadata
     id="metadata7">
    <rdf:RDF>
      <cc:Work
         rdf:about="">
        <dc:format>image/svg+xml</dc:format>
        <dc:type
           rdf:resource="http://purl.org/dc/dcmitype/StillImage" />
        <dc:title></dc:title>
      </cc:Work>
    </rdf:RDF>
  </metadata>
  <g
     inkscape:groupmode="layer"
     id="layer10"
     inkscape:label="Export"
     style="display:none">
    <rect
       style="opacity:1;fill:#eeeeec;fill-opacity:1;stroke:none;stroke-width:1;stroke-miterlimit:4;stroke-dasharray:none;stroke-opacity:1"
       id="32px"
       width="32"
       height="32"
       x="260"
       y="124"
       inkscape:label="#rect5506" />
    <rect
       style="opacity:1;fill:#eeeeec;fill-opacity:1;stroke:none;stroke-width:1;stroke-miterlimit:4;stroke-dasharray:none;stroke-opacity:1"
       id="24px"
       width="24"
       height="24"
       x="260"
       y="159"
       inkscape:label="#rect5508" />
    <rect
       style="opacity:1;fill:#eeeeec;fill-opacity:1;stroke:none;stroke-width:1;stroke-miterlimit:4;stroke-dasharray:none;stroke-opacity:1"
       id="16px"
       width="16"
       height="16"
       x="260"
       y="187"
       inkscape:label="#rect5510"
       inkscape:export-xdpi="90"
       inkscape:export-ydpi="90" />
    <rect
       style="opacity:1;fill:#eeeeec;fill-opacity:1;stroke:none;stroke-width:1;stroke-miterlimit:4;stroke-dasharray:none;stroke-opacity:1"
       id="48px"
       width="48"
       height="48"
       x="260"
       y="73"
       inkscape:label="#rect5512" />
    <rect
       style="opacity:1;fill:#eeeeec;fill-opacity:1;stroke:none;stroke-width:1;stroke-miterlimit:4;stroke-dasharray:none;stroke-opacity:1"
       id="64px"
       width="64"
       height="64"
       x="260.5"
       y="6"
       inkscape:label="#rect5514" />
    <rect
       style="opacity:1;fill:#eeeeec;fill-opacity:1;stroke:none;stroke-width:1;stroke-miterlimit:4;stroke-dasharray:none;stroke-opacity:1"
       id="256px"
       width="256"
       height="256"
       x="0.5"
       y="-0.5"
       inkscape:label="#rect5516" />
  </g>
  <g
     inkscape:groupmode="layer"
     id="layer6"
     inkscape:label="Book Fill"
     style="display:inline"
     sodipodi:insensitive="true">
    <path
       style="display:inline;fill:#729fcf;fill-opacity:1;fill-rule:evenodd;stroke:none;stroke-width:1px;stroke-linecap:butt;stroke-linejoin:miter;stroke-opacity:1"
       d="M 56.986403,1.6484176 42.438225,1.8883607 C 42.438225,1.8883607 23.789801,3.2346605 23.934129,22.141521 23.938502,22.714302 23.964281,23.270411 24.009901,23.8085 23.962889,23.262276 23.935414,22.698303 23.930972,22.116264 L 23.930972,236.09256 C 23.930972,245.53611 33.227623,254.37881 42.018323,254.37881 L 57.273704,254.37881 222.96129,254.37881 C 226.59833,254.37881 228.46737,252.05576 228.46737,248.87273 228.46737,245.69007 228.15487,40.802789 228.15481,40.759274 L 228.15796,40.759274 228.15796,34.119773 228.66311,7.3470845 C 228.66311,7.3470845 226.42514,1.6484176 222.96129,1.6484176 L 56.986403,1.6484176 Z"
       id="path4243"
       inkscape:connector-curvature="0" />
    <use
       x="0"
       y="0"
       xlink:href="#path4243"
       id="use6137"
       transform="matrix(0.24997172,0,0,0.24997172,260.9291,6.0081709)"
       width="100%"
       height="100%" />
    <use
       x="0"
       y="0"
       xlink:href="#path4243"
       id="use6151"
       transform="matrix(0.18787333,0,0,0.18787333,259.99106,72.983279)"
       width="100%"
       height="100%" />
    <path
       style="display:inline;fill:#729fcf;fill-opacity:1;fill-rule:evenodd;stroke:none;stroke-width:1px;stroke-linecap:butt;stroke-linejoin:miter;stroke-opacity:1;enable-background:new"
       d="M 264.08529,186.99244 263.5,187.00042 C 262.77339,187.00042 261.99771,187.55889 261.99771,188.5 261.96214,193.0999 261.99982,197.39003 262,201.5 262,202.41122 262.77052,203 263.5,203 L 264.10339,203 274.65283,203 C 274.88192,203 274.99965,202.85716 274.99965,202.65667 274.99965,202.4562 274.99991,189.55488 274.9999,189.55213 L 275.0001,189.55213 275.0001,189.13393 275,187.35385 C 275,187.35385 274.87101,187.00016 274.65283,187 Z"
       id="path4243-7"
       inkscape:connector-curvature="0"
       sodipodi:nodetypes="ccccscssccccsc" />
    <path
       sodipodi:nodetypes="ccccscssccccsc"
       inkscape:connector-curvature="0"
       id="path4377"
       d="M 267.20277,123.99244 266.03246,124.00839 C 264.57959,124.00839 263.0286,125.12508 263.0286,127.00685 262.95747,136.20448 263.03282,144.78271 263.03318,153.0007 263.03318,154.82272 264.57386,156 266.03246,156 L 267.23896,156 288.33286,156 C 288.79093,156 289.02634,155.71438 289.02634,155.31351 289.02634,154.91266 289.02685,129.11611 289.02683,129.11061 L 289.02723,129.11061 289.02723,128.2744 289.02703,124.71509 C 289.02703,124.71509 288.76911,124.00787 288.33286,124.00756 Z"
       style="display:inline;fill:#729fcf;fill-opacity:1;fill-rule:evenodd;stroke:none;stroke-width:1px;stroke-linecap:butt;stroke-linejoin:miter;stroke-opacity:1;enable-background:new" />
    <path
       sodipodi:nodetypes="ccccscssccccsc"
       inkscape:connector-curvature="0"
       id="path4397"
       d="M 266.14632,159.00648 265.26876,159.01845 C 264.1793,159.01845 263.01628,159.8558 263.01628,161.26686 262.96294,168.16379 263.01944,174.59627 263.01971,180.75862 263.01971,182.12487 264.175,183.00766 265.26876,183.00766 L 266.17346,183.00766 281.48312,183.00766 C 281.8266,183.00766 281.99966,182.79349 281.99966,182.49288 281.99966,182.19231 282.00005,162.84851 282.00003,162.84439 L 282.00033,162.84439 282.00033,162.21735 282.00018,159.54836 C 282.00018,159.54836 281.81025,159.01806 281.48312,159.01782 Z"
       style="display:inline;fill:#729fcf;fill-opacity:1;fill-rule:evenodd;stroke:none;stroke-width:1px;stroke-linecap:butt;stroke-linejoin:miter;stroke-opacity:1;enable-background:new" />
  </g>
  <g
     inkscape:groupmode="layer"
     id="layer7"
     inkscape:label="Top Shading"
     style="display:inline;opacity:0.27900002"
     sodipodi:insensitive="true">
    <path
       style="display:inline;fill:#ffffff;fill-opacity:1;fill-rule:evenodd;stroke:none;stroke-width:1px;stroke-linecap:butt;stroke-linejoin:miter;stroke-opacity:1"
       d="M 228.15707,40.76017 56.407741,40.76017 46.016185,40.76017 C 46.016185,40.76017 24.074045,40.470984 23.934129,22.141977 23.789801,3.2351163 42.437899,1.8887794 42.437899,1.8887794 L 56.98505,1.6475221 222.96129,1.6475221 C 226.42514,1.6475221 228.66222,7.3484359 228.66222,7.3484359 228.46111,18.485891 228.15707,29.620775 228.15707,40.76017 Z"
       id="path4258"
       inkscape:connector-curvature="0"
       sodipodi:nodetypes="cccsccscc" />
    <use
       x="0"
       y="0"
       xlink:href="#path4258"
       id="use6139"
       transform="matrix(0.24997172,0,0,0.24997172,260.9291,6.0081709)"
       width="100%"
       height="100%" />
    <use
       x="0"
       y="0"
       xlink:href="#path4258"
       id="use6153"
       transform="matrix(0.18787333,0,0,0.18787333,259.99106,72.983279)"
       width="100%"
       height="100%" />
    <use
       x="0"
       y="0"
       xlink:href="#path4258"
       id="use6209"
       transform="matrix(0.06238022,0,0,0.06238022,302.61514,192.69781)"
       width="100%"
       height="100%" />
    <path
       sodipodi:nodetypes="ccccscccsc"
       inkscape:connector-curvature="0"
       id="path4353"
       d="M 264.08529,186.99244 263.5,187.00042 C 262.77339,187.00042 261.99771,187.55889 261.99771,188.5 261.96214,193.0999 261.99982,184.38612 262,188.49609 262,189.40731 262.77054,190.00473 263.5,190 L 264.10339,190 275,190 C 274.99996,189.12085 275.00005,188.318 275,187.35385 275,187.35385 274.87101,187.00016 274.65283,187 Z"
       style="display:inline;fill:#ffffff;fill-opacity:1;fill-rule:evenodd;stroke:none;stroke-width:1px;stroke-linecap:butt;stroke-linejoin:miter;stroke-opacity:1;enable-background:new" />
    <path
       style="display:inline;fill:#ffffff;fill-opacity:1;fill-rule:evenodd;stroke:none;stroke-width:1px;stroke-linecap:butt;stroke-linejoin:miter;stroke-opacity:1;enable-background:new"
       d="M 267.20277,123.99244 266.03246,124.00839 C 264.57959,124.00839 263.0286,125.12508 263.0286,127.00685 262.95747,136.20448 263.03282,118.78103 263.03318,126.99903 263.03318,128.82104 264.57389,130.01559 266.03246,130.00614 L 267.23896,130.00614 289.02703,130.00614 C 289.02696,128.24825 289.02714,126.64293 289.02703,124.71509 289.02703,124.71509 288.76911,124.00787 288.33286,124.00756 Z"
       id="path4379"
       inkscape:connector-curvature="0"
       sodipodi:nodetypes="ccccscccsc" />
    <path
       style="display:inline;fill:#ffffff;fill-opacity:1;fill-rule:evenodd;stroke:none;stroke-width:1px;stroke-linecap:butt;stroke-linejoin:miter;stroke-opacity:1;enable-background:new"
       d="M 266.14632,159.00648 265.26876,159.01845 C 264.1793,159.01845 263.01628,159.8558 263.01628,161.26686 262.96294,168.16379 263.01944,155.09865 263.01971,161.261 263.01971,162.62725 263.66033,163.51592 264.75408,163.51592 L 265.65878,163.51592 282,163.51592 C 282.01878,162.2237 282.00008,160.99398 282,159.54836 282,159.54836 281.80406,159.01806 281.47625,159.01782 Z"
       id="path4399"
       inkscape:connector-curvature="0"
       sodipodi:nodetypes="ccccscccsc" />
  </g>
  <g
     inkscape:groupmode="layer"
     id="layer8"
     inkscape:label="Edge Shading"
     style="display:inline"
     sodipodi:insensitive="true">
    <path
       inkscape:connector-curvature="0"
       id="path4263"
       d="M 83.572266,49.839844 74.572266,49.988281 C 74.572266,49.988281 63.035714,50.821148 63.125,62.517578 63.127705,62.87192 63.143653,63.215948 63.171875,63.548828 63.142792,63.210915 63.125795,62.862022 63.123047,62.501953 L 63.123047,194.875 C 63.123047,200.7171 68.874273,206.1875 74.3125,206.1875 L 83.75,206.1875 186.25,206.1875 C 188.5,206.1875 189.65625,204.75038 189.65625,202.78125 189.65625,200.81235 189.46293,74.062076 189.46289,74.035156 L 189.46484,74.035156 189.46484,69.927734 189.77734,53.365234 C 189.77734,53.365234 188.39286,49.839844 186.25,49.839844 L 83.572266,49.839844 Z"
       style="display:inline;fill:#000000;fill-opacity:1;fill-rule:evenodd;stroke:none;stroke-width:1px;stroke-linecap:butt;stroke-linejoin:miter;stroke-opacity:1"
       mask="url(#mask4268)"
       transform="matrix(1.6164642,0,0,1.6164642,-78.105176,-78.915908)" />
    <use
       x="0"
       y="0"
       xlink:href="#path4263"
       id="use6141"
       transform="matrix(0.24997172,0,0,0.24997172,260.9291,6.0081709)"
       width="100%"
       height="100%" />
    <use
       x="0"
       y="0"
       xlink:href="#path4263"
       id="use6155"
       transform="matrix(0.18787333,0,0,0.18787333,259.99106,72.983279)"
       width="100%"
       height="100%" />
    <path
       sodipodi:nodetypes="ccccscccc"
       inkscape:connector-curvature="0"
       id="path4365"
       d="M 264.08529,186.99244 263.5,187.00042 C 262.77339,187.00042 261.99771,187.55889 261.99771,188.5 261.96214,193.0999 261.99982,197.39003 262,201.5 262,202.41122 262.77052,203 263.5,203 L 264.10339,203 265,203 265.03128,186.99522 Z"
       style="display:inline;fill:#000000;fill-opacity:0.53333285;fill-rule:evenodd;stroke:none;stroke-width:1px;stroke-linecap:butt;stroke-linejoin:miter;stroke-opacity:1;enable-background:new" />
    <path
       style="display:inline;fill:#000000;fill-opacity:0.53333285;fill-rule:evenodd;stroke:none;stroke-width:1px;stroke-linecap:butt;stroke-linejoin:miter;stroke-opacity:1;enable-background:new"
       d="M 267.20277,123.99244 266.03246,124.00839 C 264.57959,124.00839 263.0286,125.12508 263.0286,127.00685 262.95747,136.20448 263.03282,144.78271 263.03318,153.0007 263.03318,154.82272 264.57386,156 266.03246,156 L 267.23896,156 269.03176,156 269.0943,123.99799 Z"
       id="path4381"
       inkscape:connector-curvature="0"
       sodipodi:nodetypes="ccccscccc" />
    <path
       style="display:inline;fill:#000000;fill-opacity:0.53333285;fill-rule:evenodd;stroke:none;stroke-width:1px;stroke-linecap:butt;stroke-linejoin:miter;stroke-opacity:1;enable-background:new"
       d="M 266.14632,159.00648 265.26876,159.01845 C 264.1793,159.01845 263.01628,159.8558 263.01628,161.26686 262.96294,168.16379 263.01944,174.59627 263.01971,180.75862 263.01971,182.12487 264.175,183.00766 265.26876,183.00766 L 266.17346,183.00766 267.51781,183.00766 267.56471,159.01065 Z"
       id="path4401"
       inkscape:connector-curvature="0"
       sodipodi:nodetypes="ccccscccc" />
  </g>
  <g
     inkscape:groupmode="layer"
     id="layer4"
     inkscape:label="Paper Fill"
     style="display:inline;opacity:1"
     sodipodi:insensitive="true">
    <path
       style="display:inline;fill:#eeeeec;fill-opacity:1;fill-rule:evenodd;stroke:none;stroke-width:1px;stroke-linecap:butt;stroke-linejoin:miter;stroke-opacity:1"
       d="M 228.67255,7.3484359 56.418074,7.3484359 43.717283,7.7814058 C 43.717283,7.7814058 30.727837,8.3993963 30.58351,21.997643 30.464005,33.257189 44.871901,34.121125 44.871901,34.121125 L 56.995383,34.121125 228.1674,34.121125 Z"
       id="path4149-2"
       inkscape:connector-curvature="0"
       sodipodi:nodetypes="cccsccc" />
    <use
       x="0"
       y="0"
       xlink:href="#path4149-2"
       id="use6143"
       transform="matrix(0.24997172,0,0,0.24997172,260.9291,6.0081709)"
       width="100%"
       height="100%" />
    <use
       x="0"
       y="0"
       xlink:href="#path4149-2"
       id="use6157"
       transform="matrix(0.18787333,0,0,0.18787333,259.99106,72.983279)"
       width="100%"
       height="100%" />
    <path
       style="display:inline;opacity:1;fill:#eeeeec;fill-opacity:1;fill-rule:evenodd;stroke:none;stroke-width:1px;stroke-linecap:butt;stroke-linejoin:miter;stroke-opacity:1;enable-background:new"
       d="M 275,188 264,188 263.5,188 C 263.5,188 262.98573,188 262.98573,188.5 262.98573,189 263.5,189 263.5,189 L 264,189 275,189 Z"
       id="path4149-2-6"
       inkscape:connector-curvature="0"
       sodipodi:nodetypes="cccscccc" />
    <path
       sodipodi:nodetypes="cccscccc"
       inkscape:connector-curvature="0"
       id="path4383"
       d="M 289.02703,125 267.48535,125 266.48558,125 C 265.37618,125 264.48854,125.8977 264.48854,127.00685 264.48854,128.0613 265.35584,129 266.45433,129 L 267.4541,129 289.02703,129 Z"
       style="display:inline;opacity:1;fill:#eeeeec;fill-opacity:1;fill-rule:evenodd;stroke:none;stroke-width:1px;stroke-linecap:butt;stroke-linejoin:miter;stroke-opacity:1;enable-background:new" />
    <path
       sodipodi:nodetypes="cccscccc"
       inkscape:connector-curvature="0"
       id="path4403"
       d="M 282,160.51718 266.01844,160.51718 265.26876,160.51718 C 265.26876,160.51718 264.49768,160.51718 264.49768,161.26686 264.49768,162.01655 265.26876,162.01655 265.26876,162.01655 L 266.01844,162.01655 282,162.01655 Z"
       style="display:inline;opacity:1;fill:#eeeeec;fill-opacity:1;fill-rule:evenodd;stroke:none;stroke-width:1px;stroke-linecap:butt;stroke-linejoin:miter;stroke-opacity:1;enable-background:new" />
  </g>
  <g
     inkscape:groupmode="layer"
     id="layer2"
     inkscape:label="Outline"
     style="display:none"
     sodipodi:insensitive="true">
    <path
       style="fill:none;fill-opacity:1;fill-rule:evenodd;stroke:#000000;stroke-width:1.61646426;stroke-linecap:butt;stroke-linejoin:miter;stroke-miterlimit:4;stroke-dasharray:none;stroke-opacity:1"
       d="M 228.15707,34.121125 228.15707,40.76017 56.407741,40.76017 46.016185,40.76017 C 46.016185,40.76017 24.074045,40.470984 23.934129,22.141977 23.789801,3.2351163 42.437899,1.8887794 42.437899,1.8887794 L 56.98505,1.6475221 222.96129,1.6475221 C 226.42514,1.6475221 228.66222,7.3484359 228.66222,7.3484359 L 56.407741,7.3484359 43.706951,7.7814058 C 43.706951,7.7814058 30.717507,8.3993963 30.573179,21.997643 30.453674,33.257189 44.861569,34.121125 44.861569,34.121125 L 56.98505,34.121125 Z"
       id="path4149"
       inkscape:connector-curvature="0"
       sodipodi:nodetypes="ccccsccscccsccc" />
    <path
       sodipodi:nodetypes="cccccscssc"
       inkscape:connector-curvature="0"
       id="path4209"
       d="M 228.15471,40.735826 56.405378,40.735826 46.013826,40.735826 C 46.013826,40.735826 24.071681,40.44664 23.931777,22.117633 23.931777,94.789662 23.931777,163.42053 23.931777,236.09256 23.931777,245.53611 33.226446,254.38001 42.017146,254.38001 L 57.273704,254.38001 222.96129,254.38001 C 226.59833,254.38001 228.46795,252.05634 228.46795,248.87331 228.46795,245.69032 228.15471,40.735826 228.15471,40.735826 Z"
       style="display:inline;fill:none;fill-opacity:1;fill-rule:evenodd;stroke:#000000;stroke-width:1.61646426;stroke-linecap:butt;stroke-linejoin:miter;stroke-miterlimit:4;stroke-dasharray:none;stroke-opacity:1" />
    <use
       x="0"
       y="0"
       xlink:href="#path4149"
       id="use6145"
       transform="matrix(0.24997172,0,0,0.24997172,260.9291,6.0081709)"
       width="100%"
       height="100%" />
    <use
       x="0"
       y="0"
       xlink:href="#path4209"
       id="use6147"
       transform="matrix(0.24997172,0,0,0.24997172,260.9291,6.0081709)"
       width="100%"
       height="100%" />
    <use
       x="0"
       y="0"
       xlink:href="#path4149"
       id="use6159"
       transform="matrix(0.18787333,0,0,0.18787333,259.99106,72.983279)"
       width="100%"
       height="100%" />
    <use
       x="0"
       y="0"
       xlink:href="#path4209"
       id="use6161"
       transform="matrix(0.18787333,0,0,0.18787333,259.99106,72.983279)"
       width="100%"
       height="100%" />
    <use
       x="0"
       y="0"
       xlink:href="#path4149"
       id="use6173"
       transform="matrix(0.12439773,0,0,0.12439773,260.04461,124.12501)"
       width="100%"
       height="100%" />
    <use
       x="0"
       y="0"
       xlink:href="#path4209"
       id="use6175"
       transform="matrix(0.12439773,0,0,0.12439773,260.04461,124.12501)"
       width="100%"
       height="100%" />
    <use
       x="0"
       y="0"
       xlink:href="#path4149"
       id="use6201"
       transform="matrix(0.09342905,0,0,0.09342905,260.31878,159.1528)"
       width="100%"
       height="100%" />
    <use
       x="0"
       y="0"
       xlink:href="#path4209"
       id="use6203"
       transform="matrix(0.09342905,0,0,0.09342905,260.31878,159.1528)"
       width="100%"
       height="100%" />
    <use
       x="0"
       y="0"
       xlink:href="#path4149"
       id="use6215"
       transform="matrix(0.06238022,0,0,0.06238022,259.92764,187.01031)"
       width="100%"
       height="100%" />
    <use
       x="0"
       y="0"
       xlink:href="#path4209"
       id="use6217"
       transform="matrix(0.06238022,0,0,0.06238022,259.92764,187.01031)"
       width="100%"
       height="100%" />
  </g>
  <g
     inkscape:groupmode="layer"
     id="layer9"
     inkscape:label="Symbol"
     style="display:inline;opacity:0.86199999"
     sodipodi:insensitive="true">
    <g
       id="g4370"
       transform="translate(1,0)">
      <path
         style="fill:#ffffff;fill-rule:evenodd;stroke:#ffffff;stroke-width:1;stroke-linecap:butt;stroke-linejoin:miter;stroke-miterlimit:4;stroke-dasharray:none;stroke-opacity:1"
         d="M 267.5,190.99952 267.50449,195.32551 267.5,199.99952"
         id="path4266"
         inkscape:connector-curvature="0"
         sodipodi:nodetypes="ccc" />
      <path
         sodipodi:nodetypes="cc"
         style="fill:#ffffff;fill-rule:evenodd;stroke:#ffffff;stroke-width:1;stroke-linecap:butt;stroke-linejoin:miter;stroke-miterlimit:4;stroke-dasharray:none;stroke-opacity:1"
         d="M 265,195.5 268,195.5"
         id="path4268"
         inkscape:connector-curvature="0" />
      <path
         inkscape:connector-curvature="0"
         id="path4270"
         d="M 271.25559,199.33226 267.75844,195.52616"
         style="fill:#ffffff;fill-rule:evenodd;stroke:#ffffff;stroke-width:1.33000004;stroke-linecap:butt;stroke-linejoin:miter;stroke-miterlimit:4;stroke-dasharray:none;stroke-opacity:1"
         sodipodi:nodetypes="cc" />
      <path
         sodipodi:nodetypes="cc"
         style="fill:#ffffff;fill-rule:evenodd;stroke:#ffffff;stroke-width:1.33000004;stroke-linecap:butt;stroke-linejoin:miter;stroke-miterlimit:4;stroke-dasharray:none;stroke-opacity:1"
         d="M 270.98997,191.04212 267.75844,195.6451"
         id="path4272"
         inkscape:connector-curvature="0" />
      <path
         style="display:inline;fill:none;fill-rule:evenodd;stroke:#ffffff;stroke-width:1;stroke-linecap:butt;stroke-linejoin:miter;stroke-miterlimit:4;stroke-dasharray:none;stroke-opacity:1"
         d="M 271.5,197 271.5,199.49961 269.01562,199.48437"
         id="path4274"
         inkscape:connector-curvature="0"
         sodipodi:nodetypes="ccc" />
    </g>
    <g
       id="g4488">
      <path
         sodipodi:nodetypes="ccc"
         inkscape:connector-curvature="0"
         id="path4387"
         d="M 276,133 276.03908,141.65464 276,150"
         style="fill:#ffffff;fill-rule:evenodd;stroke:#ffffff;stroke-width:2;stroke-linecap:butt;stroke-linejoin:miter;stroke-miterlimit:4;stroke-dasharray:none;stroke-opacity:1" />
      <path
         inkscape:connector-curvature="0"
         id="path4389"
         d="M 271,141.5 277,141.5"
         style="fill:#ffffff;fill-rule:evenodd;stroke:#ffffff;stroke-width:1;stroke-linecap:butt;stroke-linejoin:miter;stroke-miterlimit:4;stroke-dasharray:none;stroke-opacity:1"
         sodipodi:nodetypes="cc" />
      <path
         sodipodi:nodetypes="cc"
         style="fill:#ffffff;fill-rule:evenodd;stroke:#ffffff;stroke-width:1;stroke-linecap:butt;stroke-linejoin:miter;stroke-miterlimit:4;stroke-dasharray:none;stroke-opacity:1"
         d="M 284.05514,149.16625 276.54686,141.55584"
         id="path4391"
         inkscape:connector-curvature="0" />
      <path
         inkscape:connector-curvature="0"
         id="path4393"
         d="M 283.75969,133.25279 276.54686,141.79367"
         style="fill:#ffffff;fill-rule:evenodd;stroke:#ffffff;stroke-width:1;stroke-linecap:butt;stroke-linejoin:miter;stroke-miterlimit:4;stroke-dasharray:none;stroke-opacity:1"
         sodipodi:nodetypes="cc" />
      <path
         sodipodi:nodetypes="ccc"
         inkscape:connector-curvature="0"
         id="path4395"
         d="M 284.5,145 284.5,149.5 280,149.5"
         style="display:inline;fill:none;fill-rule:evenodd;stroke:#ffffff;stroke-width:1;stroke-linecap:butt;stroke-linejoin:miter;stroke-miterlimit:4;stroke-dasharray:none;stroke-opacity:1" />
    </g>
    <path
       style="fill:#ffffff;fill-rule:evenodd;stroke:#ffffff;stroke-width:1.49936533;stroke-linecap:butt;stroke-linejoin:miter;stroke-miterlimit:4;stroke-dasharray:none;stroke-opacity:1"
       d="M 272.76557,164.99466 272.7723,171.28203 272.76557,178.00282"
       id="path4407"
       inkscape:connector-curvature="0"
       sodipodi:nodetypes="ccc" />
    <path
       sodipodi:nodetypes="cc"
       style="fill:#ffffff;fill-rule:evenodd;stroke:#ffffff;stroke-width:1;stroke-linecap:butt;stroke-linejoin:miter;stroke-miterlimit:4;stroke-dasharray:none;stroke-opacity:1"
       d="M 269.01715,171.48842 273.51525,171.48842"
       id="path4409"
       inkscape:connector-curvature="0" />
    <path
       inkscape:connector-curvature="0"
       id="path4411"
       d="M 278.39657,177.28961 273.15306,171.58288"
       style="fill:#ffffff;fill-rule:evenodd;stroke:#ffffff;stroke-width:1;stroke-linecap:butt;stroke-linejoin:miter;stroke-miterlimit:4;stroke-dasharray:none;stroke-opacity:1"
       sodipodi:nodetypes="cc" />
    <path
       sodipodi:nodetypes="cc"
       style="fill:#ffffff;fill-rule:evenodd;stroke:#ffffff;stroke-width:1;stroke-linecap:butt;stroke-linejoin:miter;stroke-miterlimit:4;stroke-dasharray:none;stroke-opacity:1"
       d="M 277.66685,165.25742 273.15306,171.76121"
       id="path4413"
       inkscape:connector-curvature="0" />
    <path
       style="display:inline;fill:none;fill-rule:evenodd;stroke:#ffffff;stroke-width:1;stroke-linecap:butt;stroke-linejoin:miter;stroke-miterlimit:4;stroke-dasharray:none;stroke-opacity:1"
       d="M 278.48682,174.00262 278.48682,177.54053 275.00489,177.51768"
       id="path4415"
       inkscape:connector-curvature="0"
       sodipodi:nodetypes="ccc" />
    <g
       id="g4495">
      <path
         style="fill:#ffffff;fill-rule:evenodd;stroke:#ffffff;stroke-width:2;stroke-linecap:butt;stroke-linejoin:miter;stroke-miterlimit:4;stroke-dasharray:none;stroke-opacity:1"
         d="M 276,133 276.03908,141.65464 276,150"
         id="path4497"
         inkscape:connector-curvature="0"
         sodipodi:nodetypes="ccc" />
      <path
         sodipodi:nodetypes="cc"
         style="fill:#ffffff;fill-rule:evenodd;stroke:#ffffff;stroke-width:1;stroke-linecap:butt;stroke-linejoin:miter;stroke-miterlimit:4;stroke-dasharray:none;stroke-opacity:1"
         d="M 271,141.5 277,141.5"
         id="path4499"
         inkscape:connector-curvature="0" />
      <path
         inkscape:connector-curvature="0"
         id="path4501"
         d="M 284.05514,149.16625 276.54686,141.55584"
         style="fill:#ffffff;fill-rule:evenodd;stroke:#ffffff;stroke-width:1;stroke-linecap:butt;stroke-linejoin:miter;stroke-miterlimit:4;stroke-dasharray:none;stroke-opacity:1"
         sodipodi:nodetypes="cc" />
      <path
         sodipodi:nodetypes="cc"
         style="fill:#ffffff;fill-rule:evenodd;stroke:#ffffff;stroke-width:1;stroke-linecap:butt;stroke-linejoin:miter;stroke-miterlimit:4;stroke-dasharray:none;stroke-opacity:1"
         d="M 283.75969,133.25279 276.54686,141.79367"
         id="path4503"
         inkscape:connector-curvature="0" />
      <path
         style="display:inline;fill:none;fill-rule:evenodd;stroke:#ffffff;stroke-width:1;stroke-linecap:butt;stroke-linejoin:miter;stroke-miterlimit:4;stroke-dasharray:none;stroke-opacity:1"
         d="M 284.5,145 284.5,149.5 280,149.5"
         id="path4505"
         inkscape:connector-curvature="0"
         sodipodi:nodetypes="ccc" />
    </g>
    <g
       id="g4549"
       transform="matrix(1.1610589,0,0,1.1610589,-36.147616,-64.812971)">
      <path
         sodipodi:nodetypes="ccc"
         inkscape:connector-curvature="0"
         id="path4551"
         d="M 276,133 276.03908,141.65464 276,150"
         style="fill:#ffffff;fill-rule:evenodd;stroke:#ffffff;stroke-width:2;stroke-linecap:butt;stroke-linejoin:miter;stroke-miterlimit:4;stroke-dasharray:none;stroke-opacity:1" />
      <path
         inkscape:connector-curvature="0"
         id="path4553"
         d="M 271,141.5 277,141.5"
         style="fill:#ffffff;fill-rule:evenodd;stroke:#ffffff;stroke-width:1;stroke-linecap:butt;stroke-linejoin:miter;stroke-miterlimit:4;stroke-dasharray:none;stroke-opacity:1"
         sodipodi:nodetypes="cc" />
      <path
         sodipodi:nodetypes="cc"
         style="fill:#ffffff;fill-rule:evenodd;stroke:#ffffff;stroke-width:1;stroke-linecap:butt;stroke-linejoin:miter;stroke-miterlimit:4;stroke-dasharray:none;stroke-opacity:1"
         d="M 284.05514,149.16625 276.54686,141.55584"
         id="path4555"
         inkscape:connector-curvature="0" />
      <path
         inkscape:connector-curvature="0"
         id="path4557"
         d="M 283.75969,133.25279 276.54686,141.79367"
         style="fill:#ffffff;fill-rule:evenodd;stroke:#ffffff;stroke-width:1;stroke-linecap:butt;stroke-linejoin:miter;stroke-miterlimit:4;stroke-dasharray:none;stroke-opacity:1"
         sodipodi:nodetypes="cc" />
      <path
         sodipodi:nodetypes="ccc"
         inkscape:connector-curvature="0"
         id="path4559"
         d="M 284.5,145 284.5,149.5 280,149.5"
         style="display:inline;fill:none;fill-rule:evenodd;stroke:#ffffff;stroke-width:1;stroke-linecap:butt;stroke-linejoin:miter;stroke-miterlimit:4;stroke-dasharray:none;stroke-opacity:1" />
    </g>
    <g
       transform="matrix(1.4467732,0,0,1.4467732,-106.96006,-165.29302)"
       id="g4561">
      <path
         style="fill:#ffffff;fill-rule:evenodd;stroke:#ffffff;stroke-width:2;stroke-linecap:butt;stroke-linejoin:miter;stroke-miterlimit:4;stroke-dasharray:none;stroke-opacity:1"
         d="M 276,133 276.03908,141.65464 276,150"
         id="path4563"
         inkscape:connector-curvature="0"
         sodipodi:nodetypes="ccc" />
      <path
         sodipodi:nodetypes="cc"
         style="fill:#ffffff;fill-rule:evenodd;stroke:#ffffff;stroke-width:1;stroke-linecap:butt;stroke-linejoin:miter;stroke-miterlimit:4;stroke-dasharray:none;stroke-opacity:1"
         d="M 271,141.5 277,141.5"
         id="path4565"
         inkscape:connector-curvature="0" />
      <path
         inkscape:connector-curvature="0"
         id="path4567"
         d="M 284.05514,149.16625 276.54686,141.55584"
         style="fill:#ffffff;fill-rule:evenodd;stroke:#ffffff;stroke-width:1;stroke-linecap:butt;stroke-linejoin:miter;stroke-miterlimit:4;stroke-dasharray:none;stroke-opacity:1"
         sodipodi:nodetypes="cc" />
      <path
         sodipodi:nodetypes="cc"
         style="fill:#ffffff;fill-rule:evenodd;stroke:#ffffff;stroke-width:1;stroke-linecap:butt;stroke-linejoin:miter;stroke-miterlimit:4;stroke-dasharray:none;stroke-opacity:1"
         d="M 283.75969,133.25279 276.54686,141.79367"
         id="path4569"
         inkscape:connector-curvature="0" />
      <path
         style="display:inline;fill:none;fill-rule:evenodd;stroke:#ffffff;stroke-width:1;stroke-linecap:butt;stroke-linejoin:miter;stroke-miterlimit:4;stroke-dasharray:none;stroke-opacity:1"
         d="M 284.5,145 284.5,149.5 280,149.5"
         id="path4571"
         inkscape:connector-curvature="0"
         sodipodi:nodetypes="ccc" />
    </g>
    <g
       id="g4573"
       transform="matrix(5.8396303,0,0,5.8396303,-1491.4807,-687.94344)">
      <path
         sodipodi:nodetypes="ccc"
         inkscape:connector-curvature="0"
         id="path4575"
         d="M 276,133 276.03908,141.65464 276,150"
         style="fill:#ffffff;fill-rule:evenodd;stroke:#ffffff;stroke-width:2;stroke-linecap:butt;stroke-linejoin:miter;stroke-miterlimit:4;stroke-dasharray:none;stroke-opacity:1" />
      <path
         inkscape:connector-curvature="0"
         id="path4577"
         d="M 271,141.5 277,141.5"
         style="fill:#ffffff;fill-rule:evenodd;stroke:#ffffff;stroke-width:1;stroke-linecap:butt;stroke-linejoin:miter;stroke-miterlimit:4;stroke-dasharray:none;stroke-opacity:1"
         sodipodi:nodetypes="cc" />
      <path
         sodipodi:nodetypes="cc"
         style="fill:#ffffff;fill-rule:evenodd;stroke:#ffffff;stroke-width:1;stroke-linecap:butt;stroke-linejoin:miter;stroke-miterlimit:4;stroke-dasharray:none;stroke-opacity:1"
         d="M 284.05514,149.16625 276.54686,141.55584"
         id="path4579"
         inkscape:connector-curvature="0" />
      <path
         inkscape:connector-curvature="0"
         id="path4581"
         d="M 283.75969,133.25279 276.54686,141.79367"
         style="fill:#ffffff;fill-rule:evenodd;stroke:#ffffff;stroke-width:1;stroke-linecap:butt;stroke-linejoin:miter;stroke-miterlimit:4;stroke-dasharray:none;stroke-opacity:1"
         sodipodi:nodetypes="cc" />
      <path
         sodipodi:nodetypes="ccc"
         inkscape:connector-curvature="0"
         id="path4583"
         d="M 284.5,145 284.5,149.5 280,149.5"
         style="display:inline;fill:none;fill-rule:evenodd;stroke:#ffffff;stroke-width:1;stroke-linecap:butt;stroke-linejoin:miter;stroke-miterlimit:4;stroke-dasharray:none;stroke-opacity:1" />
    </g>
  </g>
  <g
     inkscape:groupmode="layer"
     id="layer3"
     inkscape:label="Guidelines"
     style="display:none;opacity:0.44600004;filter:url(#filter4338)"
     sodipodi:insensitive="true">
    <circle
       style="display:inline;opacity:1;fill:#000000;fill-opacity:1;stroke:none;stroke-width:1.33000004;stroke-miterlimit:4;stroke-dasharray:none;stroke-opacity:1;enable-background:new"
       id="path4320"
       cx="263.5"
       cy="188.5"
       r="1.5" />
    <use
       x="0"
       y="0"
       xlink:href="#path4320"
       id="use4342"
       transform="translate(0,13)"
       width="100%"
       height="100%" />
    <circle
       cy="127"
       cx="266.5"
       id="circle4429"
       style="display:inline;opacity:1;fill:#000000;fill-opacity:1;stroke:none;stroke-width:1.33000004;stroke-miterlimit:4;stroke-dasharray:none;stroke-opacity:1;enable-background:new"
       r="2" />
  </g>
</svg>
